<?xml version="1.0" encoding="iso-8859-1"?>
<!-- Generator: Adobe Illustrator 18.1.1, SVG Export Plug-In . SVG Version: 6.00 Build 0)  -->
<svg xmlns="http://www.w3.org/2000/svg" xmlns:xlink="http://www.w3.org/1999/xlink" version="1.1" id="Capa_1" x="0px" y="0px" viewBox="0 0 454.924 454.924" style="enable-background:new 0 0 454.924 454.924;" xml:space="preserve" width="512px" height="512px">
<g>
	<path d="M117.734,302.074h30.36c4.487,0,8.129-3.642,8.129-8.129c0-4.487-3.642-8.129-8.129-8.129h-22.232   V16.257h203.198v269.56h-22.24c-4.487,0-8.129,3.642-8.129,8.129c0,4.487,3.642,8.129,8.129,8.129h30.368   c4.487,0,8.129-3.642,8.129-8.129V8.129c0-4.487-3.642-8.129-8.129-8.129H117.734c-4.487,0-8.129,3.642-8.129,8.129v285.817   C109.606,298.432,113.239,302.074,117.734,302.074z" fill="#FFFFFF"/>
	<path d="M158.166,454.769c0.52,0.106,1.049,0.154,1.561,0.154c3.812,0,7.218-2.699,7.966-6.576   l26.71-137.381c0.853-4.406-2.024-8.673-6.43-9.527c-4.414-0.862-8.673,2.024-9.527,6.43l-26.71,137.381   C150.883,449.648,153.76,453.916,158.166,454.769z" fill="#FFFFFF"/>
	<path d="M295.189,454.924c0.512,0,1.032-0.049,1.561-0.154c4.406-0.854,7.283-5.121,6.422-9.527   l-26.711-137.381c-0.853-4.406-5.121-7.308-9.527-6.43c-4.406,0.853-7.283,5.121-6.43,9.527l26.71,137.381   C287.971,452.225,291.377,454.924,295.189,454.924z" fill="#FFFFFF"/>
	<path d="M225.527,326.086c-4.487,0-8.129,3.642-8.129,8.129v66.776c0,4.487,3.642,8.129,8.129,8.129   c4.487,0,8.129-3.642,8.129-8.129v-66.776C233.656,329.728,230.014,326.086,225.527,326.086z" fill="#FFFFFF"/>
	<path d="M196.98,46.057h-4.845c-13.445,0-24.386,10.941-24.386,24.386v184.25   c0,4.487,3.642,8.129,8.129,8.129h37.359c4.487,0,8.129-3.642,8.129-8.129V70.442C221.365,56.998,210.424,46.057,196.98,46.057z    M205.108,246.564h-21.102V70.442c0-4.479,3.65-8.129,8.129-8.129h4.845c4.479,0,8.129,3.65,8.129,8.129V246.564z" fill="#FFFFFF"/>
	<path d="M262.789,90.089h-4.845c-13.445,0-24.386,10.941-24.386,24.386v140.218   c0,4.487,3.642,8.129,8.129,8.129h37.359c4.487,0,8.129-3.642,8.129-8.129V114.475C287.174,101.03,276.233,90.089,262.789,90.089z    M270.917,246.564h-21.102V114.475c0-4.479,3.65-8.129,8.129-8.129h4.845c4.479,0,8.129,3.65,8.129,8.129V246.564z" fill="#FFFFFF"/>
</g>
<g>
</g>
<g>
</g>
<g>
</g>
<g>
</g>
<g>
</g>
<g>
</g>
<g>
</g>
<g>
</g>
<g>
</g>
<g>
</g>
<g>
</g>
<g>
</g>
<g>
</g>
<g>
</g>
<g>
</g>
</svg>
