<?xml version="1.0" encoding="utf-8"?>
<!DOCTYPE svg PUBLIC "-//W3C//DTD SVG 1.1//EN" "http://www.w3.org/Graphics/SVG/1.1/DTD/svg11.dtd">
<svg xmlns="http://www.w3.org/2000/svg" xmlns:xlink="http://www.w3.org/1999/xlink" version="1.1" viewBox="0 0 512 512" enable-background="new 0 0 512 512" width="512px" height="512px">
  <g>
    <g>
      <g>
        <path d="m495.1,177.9l-73.7-73.4c-8-7.9-20.8-7.9-28.8,0l-29.4,29.3v-102.4c0-11.3-9.1-20.4-20.4-20.4h-311.3c-11.3,0-20.4,9.1-20.4,20.4v449.2c0,11.3 9.1,20.4 20.4,20.4h311.2c11.3,0 20.4-9.1 20.4-20.4v-142.4l132-131.4c6.1-6.1 9.2-19.7 5.68434e-14-28.9zm-172.9,282.3h-270.3v-408.4h270.3v122.6l-115.5,115c-2.6,2.5-4.4,5.7-5.3,9.2l-26.7,100c-1.9,7 0.2,14.5 5.3,19.7 5.3,5.4 12.9,6.3 19.7,5.3l100.4-26.6c3.5-0.9 6.6-2.7 9.2-5.3l13-12.9v81.4zm-37.9-101.2l-61.1,16.2 16.2-60.7 167.5-166.7 44.8,44.6-167.4,166.6z" fill="#FFFFFF"/>
        <path d="m264.6,159.9c0-11.3-9.1-20.4-20.4-20.4h-114.2c-11.3,0-20.4,9.1-20.4,20.4 0,11.3 9.1,20.4 20.4,20.4h114.3c11.2,0 20.3-9.1 20.3-20.4z" fill="#FFFFFF"/>
      </g>
    </g>
  </g>
</svg>
