<?xml version="1.0" encoding="iso-8859-1"?>
<svg xmlns="http://www.w3.org/2000/svg" xmlns:xlink="http://www.w3.org/1999/xlink" version="1.1" viewBox="0 0 295.82 295.82" enable-background="new 0 0 295.82 295.82" width="512px" height="512px">
  <g>
    <g>
      <path d="m269.719,43.503h-243.617c-13.921,0-26.102,12.181-26.102,26.102v156.611c0,13.921 12.181,26.102 26.102,26.102h243.617c13.921,0 26.102-12.181 26.102-26.102v-156.611c-0.001-13.921-12.182-26.102-26.102-26.102zm-243.617,17.401h243.617c5.22,0 8.701,3.48 8.701,8.701v13.921h-261.019v-13.921c-1.06581e-14-5.22 3.481-8.701 8.701-8.701zm252.317,40.023v13.921h-261.018v-13.921h261.018zm-8.7,133.989h-243.617c-5.22,0-8.701-3.48-8.701-8.701v-93.966h261.018v93.966c0,5.221-3.48,8.701-8.7,8.701z" fill="#FFFFFF"/>
      <path d="m45.243,172.272h45.243c5.22,0 8.701-3.48 8.701-8.701 0-5.22-3.48-8.701-8.701-8.701h-45.243c-5.22,0-8.701,3.48-8.701,8.701 0.001,5.221 3.481,8.701 8.701,8.701z" fill="#FFFFFF"/>
      <path d="m151.391,191.413h-106.148c-5.22,0-8.701,3.48-8.701,8.701s3.48,8.701 8.701,8.701h106.147c3.48,0 8.701-3.48 8.701-8.701s-3.48-8.701-8.7-8.701z" fill="#FFFFFF"/>
    </g>
  </g>
</svg>
