<?xml version="1.0" encoding="iso-8859-1"?>
<!-- Generator: Adobe Illustrator 16.0.0, SVG Export Plug-In . SVG Version: 6.00 Build 0)  -->
<!DOCTYPE svg PUBLIC "-//W3C//DTD SVG 1.1//EN" "http://www.w3.org/Graphics/SVG/1.1/DTD/svg11.dtd">
<svg xmlns="http://www.w3.org/2000/svg" xmlns:xlink="http://www.w3.org/1999/xlink" version="1.1" id="Capa_1" x="0px" y="0px" width="512px" height="512px" viewBox="0 0 318.6 318.6" style="enable-background:new 0 0 318.6 318.6;" xml:space="preserve">
<g>
	<g>
		<path d="M273.307,0H45.293v318.6h228.013V0z M249.84,202.606c-3.238,17.57-18.647,30.944-37.146,30.944    c-20.008,0-36.387-15.631-37.674-35.316c-0.053-0.828-0.126-1.646-0.126-2.483c0-20.841,16.959-37.801,37.8-37.801    s37.8,16.96,37.8,37.801C250.493,198.091,250.251,200.38,249.84,202.606z M128.318,15.731c29.078,0,52.65,23.569,52.65,52.649    c0,29.078-23.573,52.65-52.65,52.65s-52.65-23.572-52.65-52.65C75.668,39.3,99.241,15.731,128.318,15.731z M261.04,304.241H57.562    V133.16c0,0,79.397-22.46,101.741,40.99c1.621,4.599,3.564,8.591,5.729,12.155c-0.602,3.054-0.938,6.218-0.938,9.445    c0,26.794,21.806,48.6,48.6,48.6c25.123,0,45.857-19.164,48.347-43.643V304.241z" fill="#FFFFFF"/>
		<rect x="94.378" y="50.641" width="67.885" height="7.059" fill="#FFFFFF"/>
		<rect x="94.378" y="79.057" width="67.885" height="7.058" fill="#FFFFFF"/>
		<rect x="83.579" y="196.441" width="67.885" height="7.062" fill="#FFFFFF"/>
		<rect x="85.303" y="64.331" width="86.036" height="7.056" fill="#FFFFFF"/>
		<path d="M72.628,194.073c3.259,0,5.901,2.637,5.901,5.901c0,3.259-2.642,5.901-5.901,5.901c-3.259,0-5.9-2.643-5.9-5.901    C66.728,196.709,69.369,194.073,72.628,194.073z" fill="#FFFFFF"/>
		<rect x="83.579" y="223.441" width="67.885" height="7.062" fill="#FFFFFF"/>
		<path d="M72.628,221.073c3.259,0,5.901,2.637,5.901,5.901c0,3.259-2.642,5.901-5.901,5.901c-3.259,0-5.9-2.643-5.9-5.901    C66.728,223.709,69.369,221.073,72.628,221.073z" fill="#FFFFFF"/>
		<rect x="83.579" y="250.441" width="67.885" height="7.062" fill="#FFFFFF"/>
		<path d="M72.628,248.073c3.259,0,5.901,2.637,5.901,5.901c0,3.259-2.642,5.901-5.901,5.901c-3.259,0-5.9-2.643-5.9-5.901    C66.728,250.709,69.369,248.073,72.628,248.073z" fill="#FFFFFF"/>
		<rect x="83.579" y="277.441" width="67.885" height="7.062" fill="#FFFFFF"/>
		<path d="M72.628,275.073c3.259,0,5.901,2.637,5.901,5.901c0,3.259-2.642,5.901-5.901,5.901c-3.259,0-5.9-2.643-5.9-5.901    C66.728,277.709,69.369,275.073,72.628,275.073z" fill="#FFFFFF"/>
	</g>
</g>
<g>
</g>
<g>
</g>
<g>
</g>
<g>
</g>
<g>
</g>
<g>
</g>
<g>
</g>
<g>
</g>
<g>
</g>
<g>
</g>
<g>
</g>
<g>
</g>
<g>
</g>
<g>
</g>
<g>
</g>
</svg>
