<?xml version="1.0" encoding="utf-8"?>
<!-- Generator: Adobe Illustrator 19.2.1, SVG Export Plug-In . SVG Version: 6.00 Build 0)  -->
<svg version="1.1" id="Capa_1" xmlns="http://www.w3.org/2000/svg" xmlns:xlink="http://www.w3.org/1999/xlink" x="0px" y="0px"
	 viewBox="0 0 512 512" style="enable-background:new 0 0 512 512;" xml:space="preserve">
<style type="text/css">
	.st0{clip-path:url(#SVGID_2_);}
	.st1{fill:#FFFFFF;}
</style>
<g>
	<defs>
		<path id="SVGID_1_" d="M430.7,428.5H81.3c-7.5,0-13.7-6.1-13.7-13.7v-258c0-7.5,6.1-13.7,13.7-13.7h349.3
			c7.5,0,13.7,6.1,13.7,13.7v258C444.3,422.3,438.2,428.5,430.7,428.5z"/>
	</defs>
	<clipPath id="SVGID_2_">
		<use xlink:href="#SVGID_1_"  style="overflow:visible;"/>
	</clipPath>
	<g class="st0">
		<path class="st1" d="M457.2,122.9H55.6c-3.6,0-6.6,2.9-6.6,6.6v313.9c0,3.6,2.9,6.6,6.6,6.6h401.5c3.6,0,6.6-2.9,6.6-6.6v-314
			C463.7,125.8,460.8,122.9,457.2,122.9z M424.3,397.6L333.9,304c-1-1-2.6-1.1-3.7-0.1l-62.7,55.2l-80-98.7c-0.5-0.6-1.3-1-2.1-1
			s-1.6,0.4-2.1,1.1L88.5,387.6V162.3h335.8V397.6L424.3,397.6z"/>
		<path class="st1" d="M325.1,257.2c17.8,0,32.2-14.4,32.2-32.2s-14.4-32.2-32.2-32.2c-17.8,0-32.2,14.4-32.2,32.2
			S307.3,257.2,325.1,257.2z"/>
	</g>
</g>
</svg>
