<?xml version="1.0" encoding="iso-8859-1"?>
<svg xmlns="http://www.w3.org/2000/svg" xmlns:xlink="http://www.w3.org/1999/xlink" version="1.1" viewBox="0 0 490 490" enable-background="new 0 0 490 490" width="512px" height="512px">
  <path d="m475,197.501h-64.969v-140c0-7.576-5.616-13.841-12.913-14.856-0.794-0.112-1.583-0.16-2.385-0.144h-379.434c-0.792-0.015-1.596,0.032-2.395,0.145-7.292,1.02-12.904,7.283-12.904,14.855v220c0,8.284 6.716,15 15,15h64.971v140c0,8.284 6.716,15 15,15h380.029c8.284,0 15-6.716 15-15v-220c0-8.284-6.716-15-15-15zm-104.984-125c0,0-10.548,19.86-11.678,22.059-8.981,17.494-13.024,22.941-20.819,22.941h-265.006c-7.795,0-11.839-5.448-20.822-22.947-1.128-2.197-11.675-22.053-11.675-22.053h330zm-290.045,140v50h-49.971v-144.796c8.392,14.997 19.945,29.797 42.513,29.797h265.006c22.567,0 34.121-14.801 42.513-29.796v79.796h-285.061c-8.284-0.001-15,6.715-15,14.999zm380.029,205h-350.029v-190h350.029v190zm-185.008-30h120.003c19.298,0 34.998-15.702 34.998-35.001v-40.003c0-19.3-15.7-35.001-34.998-35.001h-120.003c-19.299,0-34.999,15.702-34.999,35.001v40.003c-2.84217e-14,19.3 15.7,35.001 34.999,35.001zm-4.999-75.004c0-2.711 2.289-5.001 4.999-5.001h120.003c2.709,0 4.998,2.291 4.998,5.001v40.003c0,2.711-2.289,5.001-4.998,5.001h-120.003c-2.71,0-4.999-2.291-4.999-5.001v-40.003z" fill="#FFFFFF"/>
</svg>
