<?xml version="1.0" encoding="iso-8859-1"?>
<!-- Generator: Adobe Illustrator 16.0.0, SVG Export Plug-In . SVG Version: 6.00 Build 0)  -->
<!DOCTYPE svg PUBLIC "-//W3C//DTD SVG 1.1//EN" "http://www.w3.org/Graphics/SVG/1.1/DTD/svg11.dtd">
<svg xmlns="http://www.w3.org/2000/svg" xmlns:xlink="http://www.w3.org/1999/xlink" version="1.1" id="Capa_1" x="0px" y="0px" width="512px" height="512px" viewBox="0 0 406.477 406.477" style="enable-background:new 0 0 406.477 406.477;" xml:space="preserve">
<g>
	<g>
		<path d="M394.594,70.729H11.883C5.326,70.729,0,76.042,0,82.611v241.254c0,6.568,5.326,11.883,11.883,11.883h382.711    c6.562,0,11.883-5.313,11.883-11.883V82.611C406.477,76.043,401.156,70.729,394.594,70.729z M382.711,311.982H23.765V94.494    h358.944v217.488H382.711z" fill="#FFFFFF"/>
		<path d="M49.99,199.664h49.018c6.562,0,11.883-5.326,11.883-11.883v-61.91c0-6.566-5.32-11.883-11.883-11.883H49.99    c-6.562,0-11.883,5.316-11.883,11.883v61.91C38.107,194.338,43.427,199.664,49.99,199.664z M61.873,137.754h25.252v38.145H61.873    V137.754z" fill="#FFFFFF"/>
		<path d="M162.879,175.33h173.787c6.561,0,11.883-5.326,11.883-11.883c0-6.568-5.322-11.883-11.883-11.883H162.879    c-6.562,0-11.883,5.314-11.883,11.883C150.996,170.004,156.316,175.33,162.879,175.33z" fill="#FFFFFF"/>
		<path d="M162.879,221.213h173.787c6.561,0,11.883-5.313,11.883-11.883c0-6.557-5.322-11.883-11.883-11.883H162.879    c-6.562,0-11.883,5.326-11.883,11.883C150.996,215.898,156.316,221.213,162.879,221.213z" fill="#FFFFFF"/>
		<path d="M162.879,267.109h96.547c6.562,0,11.883-5.328,11.883-11.883c0-6.568-5.32-11.883-11.883-11.883h-96.547    c-6.562,0-11.883,5.313-11.883,11.883C150.996,261.781,156.316,267.109,162.879,267.109z" fill="#FFFFFF"/>
	</g>
</g>
<g>
</g>
<g>
</g>
<g>
</g>
<g>
</g>
<g>
</g>
<g>
</g>
<g>
</g>
<g>
</g>
<g>
</g>
<g>
</g>
<g>
</g>
<g>
</g>
<g>
</g>
<g>
</g>
<g>
</g>
</svg>
