<?xml version="1.0" encoding="iso-8859-1"?>
<!-- Generator: Adobe Illustrator 18.0.0, SVG Export Plug-In . SVG Version: 6.00 Build 0)  -->
<!DOCTYPE svg PUBLIC "-//W3C//DTD SVG 1.1//EN" "http://www.w3.org/Graphics/SVG/1.1/DTD/svg11.dtd">
<svg xmlns="http://www.w3.org/2000/svg" xmlns:xlink="http://www.w3.org/1999/xlink" version="1.1" id="Capa_1" x="0px" y="0px" viewBox="0 0 213.275 213.275" style="enable-background:new 0 0 213.275 213.275;" xml:space="preserve" width="512px" height="512px">
<g>
	<path d="M183.743,0H29.532c-4.142,0-7.5,3.358-7.5,7.5v198.275c0,4.142,3.358,7.5,7.5,7.5h103.555c1.989,0,3.896-0.79,5.304-2.197   l50.656-50.658c1.406-1.407,2.196-3.314,2.196-5.303V7.5C191.243,3.358,187.886,0,183.743,0z M37.032,15h139.211v132.615h-43.154   c-4.143,0-7.5,3.358-7.5,7.5v8.275H73.562c-4.143,0-7.5,3.358-7.5,7.5c0,4.142,3.357,7.5,7.5,7.5h52.027v19.885H37.032V15z    M140.589,162.615h25.051l-25.051,25.051V162.615z" fill="#FFFFFF"/>
	<path d="M106.544,84.643c16.497,0,29.918-13.424,29.918-29.925c0-16.501-13.421-29.926-29.918-29.926   c-16.498,0-29.921,13.425-29.921,29.926C76.623,71.219,90.046,84.643,106.544,84.643z M106.544,39.792   c8.226,0,14.918,6.696,14.918,14.926c0,8.229-6.692,14.925-14.918,14.925c-8.228,0-14.921-6.695-14.921-14.925   C91.623,46.488,98.316,39.792,106.544,39.792z" fill="#FFFFFF"/>
	<path d="M73.562,138.528c4.143,0,7.5-3.358,7.5-7.5v-12.447c0-7.828,6.371-14.196,14.201-14.196h22.744   c7.834,0,14.207,6.368,14.207,14.196v12.447c0,4.142,3.357,7.5,7.5,7.5c4.143,0,7.5-3.358,7.5-7.5v-12.447   c0-16.099-13.103-29.196-29.207-29.196H95.263c-16.102,0-29.201,13.097-29.201,29.196v12.447   C66.062,135.17,69.419,138.528,73.562,138.528z" fill="#FFFFFF"/>
</g>
<g>
</g>
<g>
</g>
<g>
</g>
<g>
</g>
<g>
</g>
<g>
</g>
<g>
</g>
<g>
</g>
<g>
</g>
<g>
</g>
<g>
</g>
<g>
</g>
<g>
</g>
<g>
</g>
<g>
</g>
</svg>
