<?xml version="1.0" encoding="iso-8859-1"?>
<!-- Generator: Adobe Illustrator 17.1.0, SVG Export Plug-In . SVG Version: 6.00 Build 0)  -->
<!DOCTYPE svg PUBLIC "-//W3C//DTD SVG 1.1//EN" "http://www.w3.org/Graphics/SVG/1.1/DTD/svg11.dtd">
<svg xmlns="http://www.w3.org/2000/svg" xmlns:xlink="http://www.w3.org/1999/xlink" version="1.1" id="Capa_1" x="0px" y="0px" viewBox="0 0 200.334 200.334" style="enable-background:new 0 0 200.334 200.334;" xml:space="preserve" width="512px" height="512px">
<path d="M111.167,200.334h-22c-1.657,0-3-1.343-3-3v-79.376h-75c-1.657,0-3-1.343-3-3v-86.25c0-1.657,1.343-3,3-3h34.946  l-7.348-13.492l-0.639,4.1c-0.227,1.462-1.485,2.539-2.964,2.539H24.997c-0.99,0-1.917-0.489-2.477-1.307  c-0.559-0.817-0.679-1.858-0.319-2.781l5-12.854c0.448-1.152,1.559-1.912,2.796-1.912h7.104c0.276-0.004,0.547,0.027,0.81,0.095  h0.001c0.002,0.002,0.003,0.003,0.008,0.002c0,0,0,0,0.001,0.001c0.05,0.013,0.099,0.026,0.147,0.042c0,0,0.001-0.002,0.005,0.002  c0.683,0.217,1.289,0.678,1.678,1.34c0.018,0.031,0.036,0.063,0.053,0.095l13.142,24.131h94.443L160.53,1.577  c0.017-0.031,0.035-0.063,0.054-0.095c0.368-0.629,0.934-1.075,1.574-1.306l0,0c0.001,0,0.002,0,0.003-0.001  c0.105-0.037,0.214-0.069,0.323-0.096c0.001,0,0.001,0,0.002,0l0,0c0.243-0.058,0.494-0.086,0.746-0.079h7.104  c1.237,0,2.348,0.76,2.796,1.912l5,12.854c0.359,0.923,0.239,1.964-0.319,2.781c-0.56,0.817-1.486,1.307-2.477,1.307h-10.166  c-1.479,0-2.737-1.077-2.964-2.539l-0.639-4.1l-7.348,13.492h34.946c1.657,0,3,1.343,3,3v86.25c0,1.657-1.343,3-3,3h-75v79.376  C114.167,198.991,112.824,200.334,111.167,200.334z M92.167,194.334h16v-76.376h-16V194.334z M111.167,111.958h75v-80.25h-36.941  c-0.037,0.001-0.075,0.001-0.114,0H51.223c-0.038,0-0.076,0-0.114,0H14.167v80.25H111.167z M167.74,12.855h3.211l-2.666-6.854  h-1.611L167.74,12.855z M29.383,12.855h3.211l1.066-6.854h-1.611L29.383,12.855z M180.834,107.333H19.5c-1.657,0-3-1.343-3-3v-65  c0-1.657,1.343-3,3-3h161.334c1.657,0,3,1.343,3,3v65C183.834,105.99,182.491,107.333,180.834,107.333z M22.5,101.333h155.334v-59  H22.5V101.333z" fill="#FFFFFF"/>
<g>
</g>
<g>
</g>
<g>
</g>
<g>
</g>
<g>
</g>
<g>
</g>
<g>
</g>
<g>
</g>
<g>
</g>
<g>
</g>
<g>
</g>
<g>
</g>
<g>
</g>
<g>
</g>
<g>
</g>
</svg>
