<?xml version="1.0" encoding="utf-8"?>
<!-- Generator: Adobe Illustrator 19.2.1, SVG Export Plug-In . SVG Version: 6.00 Build 0)  -->
<svg version="1.1" id="Vrstva_1" xmlns="http://www.w3.org/2000/svg" xmlns:xlink="http://www.w3.org/1999/xlink" x="0px" y="0px"
	 viewBox="0 0 56.7 56.7" style="enable-background:new 0 0 56.7 56.7;" xml:space="preserve">
<style type="text/css">
	.st0{fill:#FFFFFF;}
</style>
<g>
	<path class="st0" d="M35.7,46.2H21c-0.9,0-1.7-0.7-1.7-1.7V9.8c0-0.9,0.7-1.7,1.7-1.7h14.7c0.9,0,1.7,0.7,1.7,1.7v34.8
		C37.3,45.5,36.6,46.2,35.7,46.2z M21,9.1c-0.4,0-0.7,0.3-0.7,0.7v34.8c0,0.4,0.3,0.7,0.7,0.7h14.7c0.4,0,0.7-0.3,0.7-0.7V9.8
		c0-0.4-0.3-0.7-0.7-0.7H21z"/>
	<path class="st0" d="M36.5,8.6H20.2c-0.6,0-1-0.5-1-1v0c0-0.6,0.5-1,1-1h16.4c0.6,0,1,0.5,1,1v0C37.6,8.2,37.1,8.6,36.5,8.6z"/>
	<path class="st0" d="M36.5,47.6H20.2c-0.6,0-1-0.5-1-1v0c0-0.6,0.5-1,1-1h16.4c0.6,0,1,0.5,1,1v0C37.6,47.2,37.1,47.6,36.5,47.6z"
		/>
	<g>
		<line class="st0" x1="24.5" y1="46.6" x2="21.7" y2="49.1"/>
		<path class="st0" d="M21.7,50.1c-0.3,0-0.6-0.1-0.7-0.3c-0.4-0.4-0.3-1,0.1-1.4l2.8-2.5c0.4-0.4,1-0.3,1.4,0.1
			c0.4,0.4,0.3,1-0.1,1.4l-2.8,2.5C22.1,50,21.9,50.1,21.7,50.1z"/>
	</g>
	<g>
		<line class="st0" x1="31.7" y1="46.6" x2="34.5" y2="49.1"/>
		<path class="st0" d="M34.5,50.1c-0.2,0-0.5-0.1-0.7-0.3L31,47.3c-0.4-0.4-0.4-1-0.1-1.4c0.4-0.4,1-0.4,1.4-0.1l2.8,2.5
			c0.4,0.4,0.4,1,0.1,1.4C35,50,34.8,50.1,34.5,50.1z"/>
	</g>
	<path class="st0" d="M35.1,44.8H21.6c-0.3,0-0.6-0.3-0.6-0.6V10.4c0-0.3,0.3-0.6,0.6-0.6h13.4c0.3,0,0.6,0.3,0.6,0.6v33.8
		C35.7,44.5,35.4,44.8,35.1,44.8z M21.6,10.3c-0.1,0-0.1,0.1-0.1,0.1v33.8c0,0.1,0.1,0.1,0.1,0.1h13.4c0.1,0,0.1-0.1,0.1-0.1V10.4
		c0-0.1-0.1-0.1-0.1-0.1H21.6z"/>
</g>
</svg>
