<?xml version="1.0" encoding="iso-8859-1"?>
<!-- Generator: Adobe Illustrator 16.0.0, SVG Export Plug-In . SVG Version: 6.00 Build 0)  -->
<!DOCTYPE svg PUBLIC "-//W3C//DTD SVG 1.1//EN" "http://www.w3.org/Graphics/SVG/1.1/DTD/svg11.dtd">
<svg xmlns="http://www.w3.org/2000/svg" xmlns:xlink="http://www.w3.org/1999/xlink" version="1.1" id="Capa_1" x="0px" y="0px" width="512px" height="512px" viewBox="0 0 84.152 84.152" style="enable-background:new 0 0 84.152 84.152;" xml:space="preserve">
<g>
	<g id="Map_1_">
		<g>
			<path d="M77.284,12.886L56.742,5.968c-0.83-0.424-1.789-0.539-2.698-0.282l-24.587,7.02L8.745,5.735     C8.366,5.614,7.966,5.55,7.562,5.55C3.394,5.55,0,8.825,0,12.851v51.136c0,3.798,3.018,6.929,6.864,7.271l21.229,7.143     l0.024-0.071c0.433,0.169,0.892,0.266,1.355,0.266c0.34,0,0.683-0.043,1.019-0.144l24.377-6.953l20.539,6.91     c0.383,0.129,0.78,0.193,1.184,0.193c4.165,0,7.556-3.283,7.556-7.309l0.006-51.15C84.139,16.354,81.117,13.23,77.284,12.886z      M7.368,63.987l0.193-50.93l18.226,6.131v50.727L8.745,64.18C8.366,64.052,7.772,63.987,7.368,63.987z M51.38,64.888     l-18.225,5.205V19.257l18.225-5.205V64.888z M76.591,71.094l-17.843-6.007V14.36L75.4,19.964     c0.383,0.129,0.982,0.193,1.384,0.193L76.591,71.094z" fill="#FFFFFF"/>
		</g>
	</g>
</g>
<g>
</g>
<g>
</g>
<g>
</g>
<g>
</g>
<g>
</g>
<g>
</g>
<g>
</g>
<g>
</g>
<g>
</g>
<g>
</g>
<g>
</g>
<g>
</g>
<g>
</g>
<g>
</g>
<g>
</g>
</svg>
