<?xml version="1.0" encoding="UTF-8"?>
<!DOCTYPE svg PUBLIC "-//W3C//DTD SVG 1.1//EN" "http://www.w3.org/Graphics/SVG/1.1/DTD/svg11.dtd">
<!-- Creator: CorelDRAW -->
<svg xmlns="http://www.w3.org/2000/svg" xml:space="preserve" width="1100mm" height="480mm" style="shape-rendering:geometricPrecision; text-rendering:geometricPrecision; image-rendering:optimizeQuality; fill-rule:evenodd; clip-rule:evenodd"
viewBox="0 0 1100 480"
 xmlns:xlink="http://www.w3.org/1999/xlink">
 <defs>
  <style type="text/css">
   <![CDATA[
    .fil1 {fill:white}
    .fil0 {fill:#F6CD73}
   ]]>
  </style>
 </defs>
 <g id="Vrstva_x0020_1">
  <metadata id="CorelCorpID_0Corel-Layer"/>
  <g id="_245926416">
   <path id="_245926512" class="fil0" d="M586.054 212.358l43.9501 0 -34.2824 48.5259c-3.1281,4.4281 -8.0228,6.7589 -12.7744,6.7589l-43.9505 0 34.2813 -48.5259c3.1315,-4.4326 8.0202,-6.7589 12.7759,-6.7589zm-32.4995 47.1014l5.4422 -7.2006c0.9977,-1.32 3.1337,-2.394 4.8627,-2.394l6.5872 0 14.3003 -18.5355c-4.3471,1.052 -8.812,2.0668 -12.9747,2.9612l7.6202 -9.9644c6.611,-1.7933 12.9789,-3.9635 19.1274,-6.7307l10.1856 0 -24.7711 32.2694 11.641 0 -5.2657 6.9277c-1.1669,1.5349 -3.265,2.6669 -5.0961,2.6669l-31.659 0z"/>
   <path id="_245924640" class="fil1" d="M465.052 219.708l-26.8688 37.1432c-1.1111,1.536 -3.1404,2.6078 -5.3351,2.6078l-9.0169 0 2.0107 -2.9687c-3.2203,2.2282 -8.0362,3.7813 -11.9528,3.7813 -2.7074,0 -4.6482,-0.6126 -5.8233,-1.8349 -1.1747,-1.2219 -1.4717,-3.0074 -0.881,-5.3553 0.5818,-2.3486 2.0189,-5.1102 4.3103,-8.2808 1.7293,-2.3862 3.6259,-4.5434 5.6798,-6.4742 2.0739,-1.9371 4.2118,-3.5794 6.4151,-4.9359 2.2185,-1.3658 4.427,-2.397 6.6708,-3.1129 2.223,-0.7071 4.3698,-1.0602 6.4288,-1.0602 3.3003,0 5.2593,1.0992 5.8775,3.3051l7.24 -10.0072c1.116,-1.5758 3.0824,-2.8073 4.9207,-2.8073l10.3242 0zm-28.168 20.6723c1.7885,-2.4728 1.3327,-3.7155 -1.365,-3.7155 -1.4661,0 -3.0122,0.6695 -4.6389,2.0074 -1.6356,1.3442 -3.472,3.4356 -5.5315,6.2816 -1.2624,1.7479 -2.1542,3.1809 -2.6609,4.2976 -0.5167,1.1171 -0.6535,1.9583 -0.4051,2.5115 0.2405,0.5613 0.8787,0.8397 1.907,0.8397 1.0973,0 2.2787,-0.3639 3.5423,-1.0888 1.2527,-0.7249 2.2902,-1.6512 3.1136,-2.7884l6.0385 -8.3451z"/>
   <path id="_245925408" class="fil1" d="M461.914 259.459l1.7621 -2.9479c-3.6973,2.3516 -9.4838,3.8166 -13.8227,3.8166 -2.5282,0 -4.482,-0.3628 -5.8262,-1.0881 -1.355,-0.7267 -2.0398,-1.7575 -2.0461,-3.0939 -0.0145,-1.3271 0.6513,-2.9126 1.9914,-4.7646 5.1471,-7.1147 15.5368,-10.8677 31.1821,-11.2592l0.6725 -0.926c0.8063,-1.1163 1.0248,-1.9274 0.6471,-2.4438 -0.3724,-0.507 -1.2925,-0.7646 -2.7809,-0.7646 -1.5096,0 -2.9866,0.3256 -4.4248,0.9646 -0.6219,0.2796 -1.1933,0.5996 -1.7122,0.9576l-12.7792 0c6.2206,-5.7931 14.4561,-8.6923 24.6967,-8.6923 4.0404,0 6.998,0.3832 8.8511,1.1453 1.8653,0.7654 2.7423,1.9788 2.6445,3.6297 -0.1033,1.643 -1.1502,3.8478 -3.1456,6.6072l-11.7551 16.2007c-1.7293,2.3836 -3.562,2.6587 -5.4954,2.6587l-8.6593 0zm9.4422 -14.0829c-3.1542,0.2743 -5.8348,0.8579 -8.0448,1.7445 -2.2189,0.8881 -3.791,1.9788 -4.7374,3.2866 -1.3881,1.917 -0.7822,2.8742 1.8148,2.8742 1.6208,0 3.1962,-0.4115 4.7289,-1.2319 1.5356,-0.8223 2.8267,-1.9572 3.8757,-3.41l2.3628 -3.2634z"/>
   <path id="_245924544" class="fil1" d="M485.145 259.459l8.1284 -29.458 13.7733 0 -6.0802 16.5572 17.9865 -16.5572 10.1262 0 -31.6364 27.5751c-1.1769,1.0256 -2.7285,1.8829 -4.2894,1.8829l-8.0084 0z"/>
   <path id="_245928216" class="fil1" d="M528.499 252.822c1.5773,0 3.2252,-0.6673 4.9348,-1.9944 1.7111,-1.3282 3.5624,-3.3623 5.5456,-6.1039 1.9881,-2.7512 3.0973,-4.7924 3.3081,-6.1184 0.2204,-1.3271 -0.4572,-1.9963 -2.0568,-1.9963 -1.6342,0 -3.2981,0.6599 -4.9832,1.9676 -1.6735,1.306 -3.5281,3.3606 -5.5444,6.1471 -2.0096,2.7813 -3.1185,4.8244 -3.3371,6.1314 -0.2108,1.3093 0.4992,1.9669 2.133,1.9669zm-5.3872 7.45c-3.6479,0 -6.4229,-0.6506 -8.3191,-1.9591 -1.8951,-1.3085 -2.7814,-3.1311 -2.6546,-5.4712 0.1376,-2.3397 1.3078,-5.0415 3.5189,-8.0968 1.6438,-2.2732 3.6281,-4.3843 5.9519,-6.3411 2.3155,-1.9472 4.7857,-3.6007 7.4195,-4.9638 2.6363,-1.3557 5.3649,-2.4066 8.1841,-3.1334 2.8193,-0.7264 5.6103,-1.0888 8.3626,-1.0888 2.7747,0 5.0415,0.3624 6.8062,1.0799 1.7654,0.7156 2.9847,1.7672 3.6579,3.1423 0.6754,1.3836 0.7639,3.0274 0.2561,4.9359 -0.5156,1.9185 -1.6122,4.0389 -3.2999,6.369 -2.1951,3.0363 -4.9218,5.7389 -8.1723,8.0968 -3.2408,2.3587 -6.7712,4.1932 -10.5439,5.4816 -3.7947,1.2981 -7.5203,1.9487 -11.1674,1.9487z"/>
   <path id="_245923344" class="fil1" d="M599.174 259.458l5.5077 -7.667c0.871,-1.2123 2.7111,-2.1996 4.2032,-2.1996l6.3597 0c2.0044,-4.6813 5.9816,-8.9652 9.9287,-12.0476 2.7702,-2.1569 5.7397,-3.9442 8.9225,-5.3568 4.4489,-1.975 8.8614,-2.9694 13.2368,-2.9694 3.0546,0 5.4426,0.4587 7.1511,1.3758 1.7163,0.907 2.6401,2.2438 2.7854,3.9902 0.1208,1.3784 -0.258,2.9806 -1.1152,4.7928l-12.2108 0c0.2201,-0.6345 0.3089,-1.1479 0.2621,-1.536 -0.0833,-0.7825 -0.7718,-1.1743 -2.0706,-1.1743 -2.684,0 -5.8523,2.5207 -9.4986,7.5637 -1.4428,1.994 -2.4706,3.617 -3.0832,4.8795 -0.6193,1.2594 -0.8045,2.1947 -0.564,2.8073 0.2591,0.5993 0.9439,0.9067 2.0855,0.9067 1.1405,0 2.4308,-0.4677 3.8731,-1.3952 1.0691,-0.6847 2.0903,-1.5501 3.0687,-2.5954l11.6804 0c-1.2996,1.5501 -2.8579,3.0073 -4.6724,4.3809 -1.9286,1.462 -3.9995,2.7118 -6.1995,3.7427 -2.207,1.0416 -4.4753,1.8441 -6.8198,2.4367 -2.3227,0.5803 -4.6066,0.8765 -6.811,0.8765 -3.6029,0 -6.3166,-0.6576 -8.1258,-1.9769 -1.7368,-1.2486 -2.5409,-3.0118 -2.4063,-5.2664l-2.6222 3.6252c-1.1587,1.6018 -3.2494,2.8066 -5.2263,2.8066l-7.6392 0z"/>
   <path id="_245919240" class="fil1" d="M641.901 259.439l4.6426 -6.3965 25.8484 -15.594 -13.2941 0 3.3869 -4.6809c1.194,-1.6505 3.2193,-2.7665 5.256,-2.7665l25.3681 0 -4.3382 5.9965 -26.4535 16.0133 15.3955 0 -3.3881 4.6702c-1.1445,1.5776 -3.2088,2.7579 -5.1578,2.7579l-27.2658 0z"/>
  </g>
 </g>
</svg>
