<?xml version="1.0" standalone="no"?>
<!DOCTYPE svg PUBLIC "-//W3C//DTD SVG 20010904//EN"
 "http://www.w3.org/TR/2001/REC-SVG-20010904/DTD/svg10.dtd">
<svg version="1.0" xmlns="http://www.w3.org/2000/svg"
 width="1040.000000pt" height="1040.000000pt" viewBox="0 0 1040.000000 1040.000000"
 preserveAspectRatio="xMidYMid meet">
<metadata>
Created by potrace 1.11, written by Peter Selinger 2001-2013
</metadata>
<g transform="translate(0.000000,1040.000000) scale(0.100000,-0.100000)"
fill="#000000" stroke="none">
<path d="M10 5205 l0 -5195 5195 0 5195 0 0 5195 0 5195 -5195 0 -5195 0 0
-5195z m9550 2846 c0 -8 -1229 -2058 -1655 -2761 -65 -107 -390 -647 -723
-1200 -332 -553 -704 -1170 -826 -1372 l-221 -368 -2648 0 -2648 0 12 23 c7
12 63 105 125 207 179 295 924 1533 1469 2440 276 459 695 1155 930 1545 235
391 527 874 648 1075 121 201 228 377 239 393 l19 27 2640 0 c1658 0 2639 -4
2639 -9z"/>
<path d="M6293 7445 c-408 -269 -994 -487 -1623 -605 -91 -17 -170 -36 -176
-43 -26 -27 -605 -920 -600 -925 8 -7 208 25 393 63 191 40 457 112 702 190
96 30 176 53 179 51 4 -4 -199 -315 -992 -1521 l-339 -515 -491 0 -491 0 -70
-108 c-376 -578 -513 -789 -519 -799 -6 -10 350 -13 1766 -13 l1773 0 302 458
301 457 -590 3 c-482 2 -589 5 -585 15 3 8 137 213 297 458 161 244 321 489
355 544 34 55 174 269 310 475 417 630 1225 1861 1225 1865 0 3 -235 5 -522 4
l-523 -1 -82 -53z"/>
</g>
</svg>
